<svg xmlns="http://www.w3.org/2000/svg" viewBox="0 0 1734.73 1508.2"><defs><style>.cls-1{fill:#57bcca;}</style></defs><title>Ресурс 8</title><g id="Слой_2" data-name="Слой 2"><g id="logo"><g id="mono"><g id="_1" data-name="1"><path class="cls-1" d="M885.3,466.81c27.54-77.66,101.62-133.47,188.54-133.47a198.85,198.85,0,0,1,103.25,28.77l124.54-71.9A332.17,332.17,0,0,0,1073.84,200c-136.2,0-253.57,82.13-305.24,199.45Z"/><path class="cls-1" d="M1140.55,66.67A66.67,66.67,0,1,1,1073.84,0a66.67,66.67,0,0,1,66.71,66.67Z"/><path class="cls-1" d="M851.84,720.62c-27.48,77.66-101.62,133.46-188.58,133.46A198.81,198.81,0,0,1,560,825.31l-124.58,71.9a332.1,332.1,0,0,0,227.78,90.21c136.21,0,253.62-82.13,305.24-199.42Z"/><path class="cls-1" d="M596.55,1120.76a66.67,66.67,0,1,1,66.68,66.66h0A66.67,66.67,0,0,1,596.55,1120.76Z"/><path class="cls-1" d="M750.28,642.66c-81,15-166.4-21.27-209.88-96.58a198.85,198.85,0,0,1-26.7-103.8l-124.54-71.9a332.14,332.14,0,0,0,35.77,242.37c68.1,118,197.91,178.53,325.35,164.61Z"/><path class="cls-1" d="M276.12,621.68a66.67,66.67,0,1,1-24.4,91.07h0a66.66,66.66,0,0,1,24.39-91.06Z"/><path class="cls-1" d="M986.84,544.77c81-15,166.4,21.27,209.88,96.58a198.76,198.76,0,0,1,26.7,103.8L1348,817.05a332.14,332.14,0,0,0-35.77-242.37c-68.1-118-197.91-178.53-325.35-164.62Z"/><path class="cls-1" d="M1461,565.75a66.67,66.67,0,1,1,24.4-91.07h0A66.67,66.67,0,0,1,1461,565.75Z"/><path class="cls-1" d="M970.08,671.67c53.52,62.63,64.78,154.74,21.3,230.05a198.74,198.74,0,0,1-76.54,75v143.81a332.13,332.13,0,0,0,192-152.16c68.1-118,55.66-260.67-20.11-364.07Z"/><path class="cls-1" d="M1189,1092.79a66.67,66.67,0,1,1,91.07-24.4h0a66.66,66.66,0,0,1-91,24.42Z"/><path class="cls-1" d="M767,515.75c-53.52-62.63-64.78-154.74-21.3-230a198.74,198.74,0,0,1,76.54-75V66.87A332.13,332.13,0,0,0,630.26,219c-68.1,118-55.66,260.67,20.11,364.07Z"/><path class="cls-1" d="M548.12,94.63A66.67,66.67,0,1,1,457,119h0a66.66,66.66,0,0,1,91.07-24.37Z"/><path class="cls-1" d="M161.76,1348a3.6,3.6,0,0,1,1.1,2.64v153.62a3.76,3.76,0,0,1-3.74,3.74H128.57a3.76,3.76,0,0,1-3.73-3.74l.66-87.47L99.78,1493a3.25,3.25,0,0,1-3.52,2.63H64.18a3.25,3.25,0,0,1-3.52-2.63l-24.84-75.61.66,86.38v.43a3.84,3.84,0,0,1-1,2.64,3.49,3.49,0,0,1-2.75,1.1H3.52a3.23,3.23,0,0,1-2.53-1.1,3.8,3.8,0,0,1-1-2.64V1350.62A3.8,3.8,0,0,1,1,1348a3.26,3.26,0,0,1,2.53-1.1H49.23a3.7,3.7,0,0,1,3.52,2.64l28.79,88.79,27.69-88.79a3.25,3.25,0,0,1,3.52-2.64h46.37A3.62,3.62,0,0,1,161.76,1348Z"/><path class="cls-1" d="M241.79,1349.52v155.82a2.33,2.33,0,0,1-2.64,2.64h-37.8a2.33,2.33,0,0,1-2.64-2.64V1349.52a2.33,2.33,0,0,1,2.64-2.64h37.8A2.33,2.33,0,0,1,241.79,1349.52Z"/><path class="cls-1" d="M412.31,1507.32a1.42,1.42,0,0,1-1.32.88H364.84a1.89,1.89,0,0,1-1.54-.88l-37.8-56.26-5.72,7v48.13c0,1.18-.51,1.76-1.54,1.76H276.92a1.55,1.55,0,0,1-1.75-1.76V1348.64a1.55,1.55,0,0,1,1.75-1.76h41.32c1,0,1.54.59,1.54,1.76v38l30.11-37.58c.15-.44.58-.66,1.32-.66H404a1.57,1.57,0,0,1,1.54,1.1c.44.44.36,1-.22,1.76l-52.53,65.49,59.56,88.79A1.86,1.86,0,0,1,412.31,1507.32Z"/><path class="cls-1" d="M583.52,1504a3.39,3.39,0,0,1,.44,1.31,2.33,2.33,0,0,1-2.64,2.64h-38.9a2.07,2.07,0,0,1-2.2-1.76l-10.77-28.79H476.92L467,1506.22a2.4,2.4,0,0,1-2.41,1.76h-38a2.34,2.34,0,0,1-2.19-1.1,3.2,3.2,0,0,1-.22-2.64l60.66-155.6a2.42,2.42,0,0,1,2.41-1.76h34.07a2.3,2.3,0,0,1,2.2,1.76Zm-80-104.84-14.73,42.64H518Z"/><path class="cls-1" d="M699.78,1472.6v32.74a2.33,2.33,0,0,1-2.64,2.64H600.66a2.33,2.33,0,0,1-2.64-2.64V1349.52a2.63,2.63,0,0,1,2.64-2.64H637.8a2.63,2.63,0,0,1,2.64,2.64V1470h56.7A2.33,2.33,0,0,1,699.78,1472.6Z"/><path class="cls-1" d="M826.7,1470.83a2.82,2.82,0,0,1,1,2.19v31.68a3.14,3.14,0,0,1-1,2.3,2.92,2.92,0,0,1-2.08,1H725.49a2.93,2.93,0,0,1-2.08-1,3.17,3.17,0,0,1-1-2.31v-154.5a3.17,3.17,0,0,1,1-2.31,2.93,2.93,0,0,1,2.08-1H821.1a2.6,2.6,0,0,1,2,1,3.41,3.41,0,0,1,.88,2.32v31.61c0,2.06-1,3.09-2.86,3.09H761.54v22.64h56a2.83,2.83,0,0,1,2.2,1,3.4,3.4,0,0,1,.88,2.31v29.89a3.4,3.4,0,0,1-.88,2.31,2.82,2.82,0,0,1-2.2,1h-56V1470h63.08A3.11,3.11,0,0,1,826.7,1470.83Z"/><path class="cls-1" d="M1053,1504a2.64,2.64,0,0,1-2.42,4h-41.1a2.41,2.41,0,0,1-2.42-1.54l-31-60.22h-7.69v59.12a2.54,2.54,0,0,1-.77,1.87,2.5,2.5,0,0,1-1.87.77H931.43a2.87,2.87,0,0,1-2-.77,2.37,2.37,0,0,1-.88-1.87V1349.52c0-1.76.95-2.64,2.86-2.64H987a96.25,96.25,0,0,1,21.1,2.42,56.24,56.24,0,0,1,18.9,8.13,43.07,43.07,0,0,1,13.41,15.6q5.05,9.67,5.06,23.52,0,16.93-8.58,28.35a44.5,44.5,0,0,1-20.44,15.17Zm-47.26-108.58a14,14,0,0,0-2-7.69,12.17,12.17,0,0,0-4.62-4.39,17.12,17.12,0,0,0-3.19-1.43,16.77,16.77,0,0,0-3.62-.77,46.73,46.73,0,0,0-7.69-.66H968.13v31.43h14.29a57.71,57.71,0,0,0,8.57-.66,26.26,26.26,0,0,0,7.47-2.42,15.77,15.77,0,0,0,5.28-5.06C1005.06,1401.9,1005.71,1399.12,1005.71,1395.45Z"/><path class="cls-1" d="M1220,1393.69a98.68,98.68,0,0,1,0,66.16,80.38,80.38,0,0,1-16.26,25.71,78.18,78.18,0,0,1-11.43,9.45,81.6,81.6,0,0,1-13.19,7.26,84.92,84.92,0,0,1-31,5.71,83.18,83.18,0,0,1-30.77-5.71,71.8,71.8,0,0,1-24.61-16.71,80.06,80.06,0,0,1-16.27-25.71,98.68,98.68,0,0,1,0-66.16,76.59,76.59,0,0,1,16.27-25.27,72.17,72.17,0,0,1,24.61-16,88.82,88.82,0,0,1,61.54,0,72.16,72.16,0,0,1,13.41,6.92,81.37,81.37,0,0,1,11.43,9.12A76.73,76.73,0,0,1,1220,1393.69Zm-57.36,72.75a37.2,37.2,0,0,0,11.42-8.79,39.54,39.54,0,0,0,4.29-6.15,41.45,41.45,0,0,0,3.19-7.26,58.57,58.57,0,0,0,2.09-8.35,52.42,52.42,0,0,0,.76-9,50.78,50.78,0,0,0-2.85-16.92,38.35,38.35,0,0,0-7.48-13.41,36.17,36.17,0,0,0-11.2-8.57,35.41,35.41,0,0,0-14.73-3.08,33,33,0,0,0-25.93,11.87,33.81,33.81,0,0,0-7.48,13.19,51.86,51.86,0,0,0-2.63,16.92,49.66,49.66,0,0,0,2.85,17.36,38.26,38.26,0,0,0,7.48,13.41,31.76,31.76,0,0,0,11.21,8.79,35.7,35.7,0,0,0,29,0Z"/><path class="cls-1" d="M1396.92,1393.69a98.51,98.51,0,0,1,0,66.16,80.21,80.21,0,0,1-16.26,25.71,78.18,78.18,0,0,1-11.43,9.45,81.18,81.18,0,0,1-13.19,7.26,84.84,84.84,0,0,1-31,5.71,83.13,83.13,0,0,1-30.76-5.71,71.84,71.84,0,0,1-24.62-16.71,80.21,80.21,0,0,1-16.26-25.71,98.51,98.51,0,0,1,0-66.16,76.41,76.41,0,0,1,16.26-25.27,72.21,72.21,0,0,1,24.62-16,88.79,88.79,0,0,1,61.53,0,71.85,71.85,0,0,1,13.41,6.92,81.37,81.37,0,0,1,11.43,9.12A76.57,76.57,0,0,1,1396.92,1393.69Zm-57.36,72.75a37.24,37.24,0,0,0,11.43-8.79,39.48,39.48,0,0,0,4.28-6.15,40.72,40.72,0,0,0,3.19-7.26,58.57,58.57,0,0,0,2.09-8.35,52.42,52.42,0,0,0,.77-9,50.78,50.78,0,0,0-2.86-16.92,38.49,38.49,0,0,0-7.47-13.41,36.21,36.21,0,0,0-11.21-8.57,35.38,35.38,0,0,0-14.73-3.08,33,33,0,0,0-25.93,11.87,33.92,33.92,0,0,0-7.47,13.19,51.85,51.85,0,0,0-2.64,16.92,49.42,49.42,0,0,0,2.86,17.36,38.4,38.4,0,0,0,7.47,13.41,31.76,31.76,0,0,0,11.21,8.79,35.7,35.7,0,0,0,29,0Z"/><path class="cls-1" d="M1588.13,1348a3.6,3.6,0,0,1,1.1,2.64v153.62a3.6,3.6,0,0,1-1.1,2.64,3.56,3.56,0,0,1-2.63,1.1H1555a3.76,3.76,0,0,1-3.74-3.74l.66-87.47L1526.15,1493a3.24,3.24,0,0,1-3.51,2.63h-32.09A3.25,3.25,0,0,1,1487,1493l-24.83-75.61.66,86.38v.43a3.8,3.8,0,0,1-1,2.64,3.49,3.49,0,0,1-2.75,1.1h-29.23a3.23,3.23,0,0,1-2.53-1.1,3.8,3.8,0,0,1-1-2.64V1350.62a3.8,3.8,0,0,1,1-2.64,3.26,3.26,0,0,1,2.53-1.1h45.71a3.69,3.69,0,0,1,3.52,2.64l28.79,88.79,27.69-88.79a3.25,3.25,0,0,1,3.52-2.64h46.38A3.6,3.6,0,0,1,1588.13,1348Z"/><path class="cls-1" d="M1717.14,1419a48.55,48.55,0,0,1,11.65,13.85q4.83,8.36,4.84,21.09,0,14.29-4.84,24.18a47.34,47.34,0,0,1-13.41,16.92,60.49,60.49,0,0,1-19.12,9.89,54,54,0,0,1-10.66,2.42,88.57,88.57,0,0,1-42.08-5q-15.62-6.15-25.28-17.15a4.33,4.33,0,0,1-1.32-3.18,5.12,5.12,0,0,1,1.32-3.41l22.42-23.74a4.41,4.41,0,0,1,3.52-1.53,4.17,4.17,0,0,1,3.51,1.75,36.2,36.2,0,0,0,12.31,9.89,30.83,30.83,0,0,0,14.73,4.18,22.7,22.7,0,0,0,3.29-.22,21.45,21.45,0,0,0,3.08-.66,12.29,12.29,0,0,0,4.83-2,11.88,11.88,0,0,0,2.64-3.29,7,7,0,0,0,.88-2.42,18.16,18.16,0,0,0,.22-2.86c0-2.05-.37-3.52-1.1-4.39a13.53,13.53,0,0,0-4.39-4.18,79.56,79.56,0,0,0-8.36-4c-1.75-.73-3.66-1.42-5.71-2.08s-4.25-1.36-6.59-2.09a67.53,67.53,0,0,1-7.15-2.53q-3.4-1.43-6.7-3.19a50.36,50.36,0,0,1-13-8.79,46.44,46.44,0,0,1-9.23-13.62q-3.51-7.69-3.51-18.91,0-13.85,5.49-23.51a49,49,0,0,1,13.85-16.05,59.32,59.32,0,0,1,19.12-9q5.26-1.32,10.55-2.09a71.15,71.15,0,0,1,36.7,4.29,67.76,67.76,0,0,1,23.52,14.51,4.62,4.62,0,0,1,1.54,3.29,5.24,5.24,0,0,1-1.32,3.52l-21.76,24a4.18,4.18,0,0,1-3.74,1.53,3.62,3.62,0,0,1-3.29-1.75,31.21,31.21,0,0,0-9.89-7.92,28.57,28.57,0,0,0-11.87-3.07,26.31,26.31,0,0,0-5.94.66,12.18,12.18,0,0,0-4.83,1.75,11.73,11.73,0,0,0-3.3,3.3,7.52,7.52,0,0,0-1.1,4.4,7.83,7.83,0,0,0,.88,4,14.2,14.2,0,0,0,1.1,1.43,6.84,6.84,0,0,0,1.76,1.43l2.86,1.43a34.6,34.6,0,0,0,3.29,1.43q4.39,1.75,8.79,3.29,3.74,1.11,7.48,2.53l7.69,3a66.79,66.79,0,0,1,8.24,4A71.29,71.29,0,0,1,1717.14,1419Z"/></g></g></g></g></svg>