<?xml version="1.0" standalone="no"?>
<!DOCTYPE svg PUBLIC "-//W3C//DTD SVG 20010904//EN"
 "http://www.w3.org/TR/2001/REC-SVG-20010904/DTD/svg10.dtd">
<svg version="1.0" xmlns="http://www.w3.org/2000/svg"
 width="1735.000000pt" height="1735.000000pt" viewBox="0 0 1735.000000 1735.000000"
 preserveAspectRatio="xMidYMid meet">
<metadata>
Created by potrace 1.11, written by Peter Selinger 2001-2013
</metadata>
<g transform="translate(0.000000,1735.000000) scale(0.100000,-0.100000)"
fill="#000000" stroke="none">
<path d="M10638 16214 c-2 -1 -16 -5 -31 -8 -127 -23 -266 -103 -362 -208 -62
-69 -135 -207 -155 -295 -40 -174 -1 -374 100 -523 159 -233 443 -340 713
-271 453 117 649 646 381 1026 -131 186 -324 284 -556 283 -48 0 -89 -2 -90
-4z"/>
<path d="M8175 15538 c-242 -84 -510 -202 -654 -289 -34 -22 -67 -39 -72 -39
-5 0 -9 -4 -9 -10 0 -5 -5 -10 -11 -10 -13 0 -179 -114 -287 -197 -400 -311
-740 -732 -955 -1184 -94 -199 -197 -482 -232 -639 -48 -215 -69 -340 -81
-475 -4 -44 -8 -93 -10 -110 -5 -48 -5 -375 0 -430 3 -27 8 -81 11 -120 3 -38
10 -95 15 -125 5 -30 12 -71 14 -90 8 -64 35 -190 61 -288 97 -369 251 -711
461 -1028 l77 -114 56 32 c31 17 61 34 66 38 6 4 30 19 55 32 100 56 976 561
982 567 4 4 -14 34 -40 66 -77 95 -181 261 -227 361 -149 324 -205 575 -199
909 1 99 5 191 8 205 3 14 7 43 10 65 18 158 115 461 193 603 13 23 35 63 49
90 146 266 393 523 674 699 l95 60 0 699 c0 384 -1 707 -3 717 -5 19 -6 19
-47 5z"/>
<path d="M5148 15366 c-1 -2 -35 -6 -75 -10 -279 -23 -518 -242 -577 -526 -46
-224 29 -459 195 -615 261 -245 664 -244 918 4 88 84 165 216 186 315 3 14 8
38 11 54 19 94 3 251 -37 350 -23 60 -91 169 -131 213 -99 107 -265 191 -408
205 -30 3 -60 7 -67 9 -6 2 -13 2 -15 1z"/>
<path d="M10405 14204 c-110 -12 -187 -24 -375 -60 -197 -37 -511 -145 -725
-249 -458 -223 -807 -499 -1155 -911 -51 -60 -191 -258 -246 -347 -58 -93
-197 -355 -208 -392 -5 -18 13 -32 141 -105 82 -47 155 -89 164 -95 9 -5 32
-18 50 -29 41 -23 472 -272 514 -297 33 -20 50 -29 140 -79 33 -18 77 -44 97
-57 21 -13 42 -23 46 -23 5 0 17 21 27 48 191 501 612 929 1115 1132 30 12 64
26 75 31 87 37 341 94 470 106 412 36 795 -40 1155 -231 l86 -45 424 246 c234
135 441 255 460 265 19 10 51 28 70 39 107 64 220 129 253 147 l37 20 -69 62
c-39 35 -81 70 -93 78 -13 9 -27 21 -33 28 -14 16 -185 141 -270 197 -153 99
-378 217 -555 290 -164 68 -463 159 -595 181 -16 3 -68 12 -115 20 -47 8 -110
17 -140 21 -30 3 -68 8 -85 11 -77 13 -537 11 -660 -2z"/>
<path d="M3886 12493 c-11 -37 -52 -279 -61 -358 -25 -215 -24 -592 0 -760 3
-16 7 -48 10 -70 5 -37 28 -170 40 -238 3 -15 19 -78 35 -140 260 -1005 971
-1828 1932 -2235 217 -93 570 -195 753 -218 17 -2 41 -6 55 -8 14 -3 43 -8 65
-10 22 -3 63 -8 90 -11 139 -16 395 -21 555 -9 52 3 105 7 118 7 12 1 23 8 23
17 1 8 2 309 3 669 1 428 -2 655 -9 657 -5 2 -55 -2 -109 -10 -115 -16 -405
-14 -511 2 -375 60 -674 184 -960 399 -229 173 -461 461 -583 724 -82 175
-145 374 -166 524 -4 23 -8 52 -11 65 -5 25 -16 182 -18 263 l-2 47 -435 252
c-239 138 -464 268 -500 288 -36 20 -113 64 -171 98 -132 76 -136 78 -143 55z"/>
<path d="M10029 12136 c-2 -2 -38 -6 -79 -10 -41 -3 -76 -6 -77 -6 -2 0 -3
-303 -3 -674 l0 -673 53 8 c259 42 571 26 827 -42 118 -32 286 -97 401 -155
642 -327 1069 -1001 1082 -1712 l2 -102 498 -287 c274 -159 514 -297 535 -309
20 -11 77 -44 125 -72 56 -32 89 -47 92 -39 11 33 40 196 54 300 27 197 36
573 18 750 -8 79 -32 255 -41 293 -2 12 -7 37 -10 55 -24 143 -103 409 -173
584 -87 215 -191 412 -320 605 -91 137 -90 136 -178 245 -361 451 -825 792
-1370 1008 -126 50 -338 120 -397 131 -13 2 -41 9 -63 14 -22 6 -51 13 -65 16
-14 2 -61 11 -105 20 -44 8 -120 20 -170 26 -49 6 -103 13 -120 16 -34 6 -510
15 -516 10z"/>
<path d="M14171 11799 c-96 -18 -230 -75 -289 -122 -115 -93 -198 -211 -243
-349 -28 -84 -31 -266 -6 -353 99 -342 420 -549 761 -489 196 34 371 157 466
328 25 45 57 125 64 158 3 13 8 35 11 50 20 98 5 254 -35 361 -67 179 -231
331 -423 392 -85 27 -228 38 -306 24z"/>
<path d="M10610 10029 c-140 -81 -266 -155 -280 -162 -21 -12 -368 -212 -535
-309 -27 -16 -60 -34 -71 -40 -21 -10 -20 -13 41 -92 189 -246 342 -588 380
-851 3 -22 8 -47 11 -55 3 -8 8 -39 10 -69 2 -30 6 -66 9 -80 7 -37 7 -287 0
-346 -24 -199 -41 -283 -85 -420 -117 -364 -308 -656 -598 -911 -77 -68 -252
-192 -314 -224 l-28 -13 0 -719 c0 -430 4 -718 9 -718 38 0 360 129 511 204
488 244 904 597 1219 1036 199 276 374 623 467 925 14 44 31 100 39 125 13 42
47 189 58 250 3 14 8 43 12 65 4 22 9 49 11 60 2 11 7 43 10 70 3 28 7 61 9
75 23 165 23 616 1 738 -2 9 -7 44 -10 77 -4 33 -20 128 -37 210 -72 363 -204
713 -387 1025 -53 90 -190 301 -195 299 -1 0 -117 -68 -257 -150z"/>
<path d="M3045 10092 c-234 -20 -460 -177 -553 -382 -46 -104 -55 -144 -59
-261 -3 -130 15 -215 67 -318 91 -181 274 -324 460 -358 91 -16 250 -9 324 16
307 101 490 361 473 675 -9 173 -72 312 -197 436 -134 132 -337 208 -515 192z"/>
<path d="M8497 8958 c-35 -113 -212 -425 -284 -503 -10 -11 -29 -33 -42 -50
-72 -94 -228 -240 -356 -335 -535 -396 -1238 -496 -1873 -266 -78 28 -203 87
-285 133 l-58 32 -65 -39 c-35 -22 -67 -40 -69 -40 -3 0 -22 -11 -43 -23 -20
-13 -57 -35 -82 -49 -65 -36 -412 -236 -430 -247 -8 -6 -58 -34 -110 -64 -281
-161 -416 -240 -428 -252 -11 -10 -3 -21 44 -61 31 -27 62 -54 68 -60 80 -78
356 -268 533 -368 93 -52 285 -146 297 -146 3 0 31 -12 63 -26 136 -62 454
-156 643 -190 14 -2 34 -6 46 -9 11 -2 40 -7 65 -10 24 -3 55 -7 68 -10 13 -2
56 -7 95 -10 39 -4 91 -9 116 -11 61 -6 371 -6 445 0 90 8 188 18 205 21 8 2
38 6 65 9 53 7 181 31 263 50 130 30 362 101 427 130 17 7 62 26 100 41 126
49 464 226 473 247 2 4 8 8 13 8 16 0 300 202 345 245 6 5 35 30 65 55 68 56
279 267 343 342 136 161 239 303 348 483 56 92 178 333 178 351 0 5 -62 45
-137 89 -76 43 -293 169 -483 279 -190 110 -361 209 -381 220 -110 63 -153 86
-159 86 -3 0 -14 -24 -23 -52z"/>
<path d="M12120 6529 c-104 -15 -225 -69 -315 -142 -165 -134 -254 -334 -242
-546 6 -106 7 -111 36 -194 63 -181 219 -337 403 -403 44 -16 49 -17 129 -32
116 -22 256 2 389 65 171 82 301 241 349 428 91 354 -123 717 -478 811 -67 18
-195 24 -271 13z"/>
<path d="M6459 5656 c-300 -87 -490 -339 -490 -648 1 -490 526 -810 964 -587
167 85 287 229 343 414 26 89 28 243 2 342 -46 181 -168 337 -330 423 -149 80
-334 101 -489 56z"/>
<path d="M16690 2780 c-106 -22 -155 -40 -222 -83 -96 -61 -158 -137 -198
-242 -26 -70 -34 -222 -15 -295 44 -168 171 -279 405 -355 165 -54 240 -101
240 -151 0 -81 -49 -119 -155 -118 -58 0 -80 6 -130 31 -33 17 -83 52 -110 77
-28 25 -56 46 -63 46 -24 0 -272 -262 -272 -287 0 -33 114 -129 202 -172 134
-65 220 -84 378 -84 121 0 143 3 215 27 191 65 307 180 355 351 9 30 15 94 14
160 0 93 -3 118 -24 165 -25 58 -74 126 -125 172 -40 37 -188 109 -305 149
-52 18 -109 38 -127 46 -104 43 -95 150 15 178 88 23 178 -4 255 -75 24 -22
53 -40 64 -40 19 0 72 53 216 218 26 29 47 61 47 71 0 23 -70 84 -148 128
-159 90 -337 118 -512 83z"/>
<path d="M20 2746 c-20 -9 -20 -16 -20 -788 0 -498 4 -786 10 -798 9 -17 24
-18 169 -18 87 0 165 4 172 9 12 7 13 83 11 440 -2 238 -6 437 -9 443 -4 7 -3
8 4 1 5 -5 60 -165 122 -355 134 -413 129 -400 153 -409 30 -11 347 -6 359 6
6 6 14 26 19 44 15 60 234 699 239 699 3 0 5 -191 3 -426 -3 -314 -1 -429 8
-439 9 -11 47 -14 181 -14 155 0 170 2 179 19 6 12 10 295 10 793 0 697 -2
776 -16 788 -12 10 -70 13 -242 14 -125 0 -237 -2 -249 -4 -20 -3 -30 -26 -78
-180 -31 -97 -69 -216 -84 -266 -16 -49 -46 -144 -66 -210 -20 -66 -43 -139
-51 -163 -8 -23 -14 -49 -14 -57 0 -7 -4 -16 -9 -19 -4 -3 -24 43 -44 102 -90
271 -247 760 -247 770 0 6 -10 14 -22 18 -33 11 -464 11 -488 0z"/>
<path d="M2007 2752 c-9 -2 -17 -11 -18 -20 -4 -118 0 -1573 5 -1580 6 -10
386 -15 412 -5 17 6 18 1590 1 1600 -11 6 -368 11 -400 5z"/>
<path d="M2764 2745 c-11 -8 -13 -155 -11 -805 l2 -795 220 0 220 0 2 247 1
247 27 36 c15 19 30 34 32 31 2 -2 89 -129 192 -282 l188 -279 238 -3 c131 -1
242 1 247 6 5 5 -56 104 -134 221 -79 117 -159 236 -178 266 -19 29 -53 80
-75 112 -22 32 -44 66 -50 75 -5 9 -40 61 -76 115 -85 127 -81 117 -61 141
149 178 512 644 508 651 -7 11 -535 14 -551 3 -6 -4 -29 -29 -50 -57 -22 -27
-42 -52 -45 -55 -3 -3 -52 -63 -108 -133 -98 -123 -102 -127 -103 -95 0 18 0
104 0 190 0 108 -4 160 -12 165 -18 11 -408 9 -423 -2z"/>
<path d="M4875 2752 c-16 -2 -29 -23 -54 -90 -19 -48 -40 -100 -47 -117 -7
-16 -28 -70 -47 -120 -102 -265 -210 -542 -218 -560 -4 -11 -18 -45 -29 -75
-11 -30 -25 -64 -29 -75 -10 -22 -146 -372 -163 -420 -6 -16 -20 -49 -30 -73
-35 -81 -36 -80 199 -79 l206 2 29 80 c16 44 40 112 54 152 l25 71 262 -1 261
-2 32 -80 c17 -44 43 -112 58 -151 l27 -72 204 0 c112 1 209 4 216 8 14 9 8
26 -156 450 -59 151 -113 291 -119 310 -7 19 -57 148 -110 285 -54 138 -123
315 -153 395 -30 80 -59 149 -64 154 -8 9 -305 15 -354 8z m235 -737 c35 -104
65 -195 67 -200 2 -7 -45 -11 -142 -11 -80 0 -145 1 -145 2 0 1 32 93 70 205
39 111 70 205 70 208 0 24 27 -44 80 -204z"/>
<path d="M6000 2748 c-19 -7 -20 -27 -20 -795 0 -433 4 -793 8 -799 10 -17
994 -17 1004 -1 11 17 10 339 -1 356 -7 10 -65 13 -295 13 -157 0 -286 2 -287
6 -1 4 -2 278 -2 609 -1 331 -5 605 -10 609 -10 10 -371 12 -397 2z"/>
<path d="M7240 2740 c-13 -13 -15 -115 -15 -798 0 -683 2 -784 15 -792 24 -15
1015 -13 1028 3 12 14 14 337 3 356 -6 9 -89 12 -329 12 -295 0 -322 2 -323
17 -5 81 -3 235 3 238 4 3 133 5 286 4 212 0 282 3 289 13 6 6 10 85 11 174 1
143 -1 164 -16 172 -9 4 -140 8 -290 7 -173 -1 -276 3 -280 9 -6 8 -8 148 -3
205 1 13 42 15 305 15 167 0 307 3 310 6 12 12 9 350 -3 362 -8 8 -150 11
-494 12 -415 0 -484 -2 -497 -15z"/>
<path d="M9314 2752 c-12 -2 -24 -11 -26 -20 -6 -32 -2 -1568 6 -1580 10 -17
372 -16 383 0 4 7 8 144 9 303 1 160 2 294 3 298 1 5 18 7 38 5 35 -3 40 -8
68 -63 17 -33 87 -168 155 -300 67 -132 128 -243 134 -247 20 -14 433 -8 445
6 10 12 8 20 -36 96 -11 19 -86 150 -166 290 -80 140 -148 262 -151 270 -4 11
7 20 39 34 100 41 206 180 232 306 12 59 9 193 -7 250 -52 193 -220 321 -456
346 -67 7 -627 12 -670 6z m656 -354 c58 -25 82 -60 86 -120 6 -126 -76 -177
-281 -174 l-90 1 -2 145 c-1 80 0 150 2 157 6 18 239 11 285 -9z"/>
<path d="M11420 2749 c-368 -28 -617 -248 -696 -614 -3 -16 -8 -86 -9 -155 -7
-238 49 -414 181 -574 143 -174 367 -270 608 -261 55 2 110 6 121 9 11 2 41 9
67 15 164 38 327 152 427 299 91 136 133 275 135 457 2 189 -21 306 -85 429
-65 125 -137 203 -257 280 -98 62 -205 99 -323 111 -30 3 -58 7 -64 8 -5 2
-53 0 -105 -4z m124 -383 c212 -29 347 -282 286 -538 -20 -80 -46 -131 -96
-187 -129 -143 -344 -152 -485 -19 -54 50 -99 137 -115 222 -10 51 -11 168 -2
216 22 116 107 234 203 279 39 18 141 42 155 35 3 -1 27 -5 54 -8z"/>
<path d="M13238 2756 c-1 -2 -34 -6 -73 -9 -110 -10 -281 -63 -324 -101 -9 -7
-21 -15 -28 -17 -45 -14 -162 -138 -229 -243 -36 -55 -81 -197 -94 -296 -63
-462 184 -848 595 -932 28 -5 93 -11 145 -13 381 -14 696 229 775 600 33 154
27 344 -15 484 -89 292 -341 493 -649 517 -42 3 -81 7 -88 9 -6 2 -13 2 -15 1z
m170 -420 c123 -63 203 -206 204 -369 2 -175 -57 -305 -177 -386 -86 -58 -220
-70 -319 -27 -164 72 -255 294 -210 514 18 88 51 149 111 208 101 100 264 125
391 60z"/>
<path d="M14281 2744 c-14 -11 -16 -85 -16 -798 0 -680 2 -788 15 -796 24 -15
328 -10 341 6 7 8 9 149 7 443 -2 236 -2 428 1 426 4 -5 66 -192 182 -550 34
-104 68 -195 74 -200 12 -10 361 -14 368 -4 4 5 47 119 52 139 10 37 206 615
211 619 2 3 3 -190 2 -429 -3 -343 -1 -436 9 -446 16 -15 329 -19 353 -4 12 8
15 116 15 791 0 564 -3 786 -11 797 -10 13 -47 16 -248 16 -131 1 -246 -2
-256 -6 -13 -5 -27 -34 -45 -95 -14 -48 -32 -106 -40 -128 -7 -22 -31 -98 -53
-170 -22 -71 -63 -202 -91 -290 -27 -88 -53 -173 -57 -188 -3 -16 -10 -25 -14
-20 -4 4 -49 136 -100 293 -179 553 -191 590 -203 597 -20 12 -478 9 -496 -3z"/>
</g>
</svg>
